<?xml version="1.0" standalone="no"?>
<!DOCTYPE svg PUBLIC "-//W3C//DTD SVG 20010904//EN"
 "http://www.w3.org/TR/2001/REC-SVG-20010904/DTD/svg10.dtd">
<svg version="1.0" xmlns="http://www.w3.org/2000/svg"
 width="700.000000pt" height="700.000000pt" viewBox="0 0 700.000000 700.000000"
 preserveAspectRatio="xMidYMid meet">
<metadata>
Created by potrace 1.14, written by Peter Selinger 2001-2017
</metadata>
<g transform="translate(0.000000,700.000000) scale(0.100000,-0.100000)"
fill="#000000" stroke="none">
<path d="M2430 6980 c-13 -8 -12 -10 3 -10 9 0 17 5 17 10 0 12 -1 12 -20 0z"/>
<path d="M2332 6939 c-74 -30 -202 -99 -202 -109 0 -3 63 25 140 62 77 38 140
70 140 73 0 6 6 8 -78 -26z"/>
<path d="M2768 6855 c-2 -1 -30 -5 -63 -8 -123 -13 -198 -41 -375 -140 -133
-75 -284 -237 -399 -427 l-51 -85 5 79 c4 44 8 82 10 85 1 3 6 31 10 61 11 88
55 196 121 302 26 41 31 57 11 36 -72 -75 -170 -196 -199 -245 -47 -80 -98
-250 -139 -460 -6 -35 -16 -63 -21 -63 -10 0 -213 -100 -303 -150 -220 -121
-364 -295 -424 -510 -22 -80 -21 -79 -47 -212 l-17 -88 -51 -1 c-28 0 -96 -2
-151 -4 -55 -1 -230 -6 -390 -10 -160 -4 -291 -8 -293 -10 -2 -1 15 -21 37
-43 27 -27 54 -43 77 -48 31 -6 137 4 223 21 13 2 49 7 80 11 31 3 65 8 76 10
11 3 43 7 70 10 28 3 68 7 90 9 22 2 80 7 129 11 l88 7 -7 -24 c-24 -83 -85
-186 -147 -249 -99 -102 -181 -157 -370 -248 -82 -39 -148 -73 -148 -76 0 -5
19 -2 135 20 193 37 405 94 467 125 82 41 141 112 197 234 18 39 29 59 26 45
-19 -73 -31 -197 -29 -290 7 -383 129 -703 384 -1004 10 -11 53 -64 96 -116
98 -119 148 -173 299 -325 157 -157 251 -237 425 -361 111 -79 111 -79 422
-237 146 -75 288 -148 315 -163 26 -15 68 -38 93 -52 272 -149 494 -290 812
-514 215 -151 447 -414 533 -603 83 -181 84 -299 10 -650 -11 -47 -94 -323
-108 -357 -9 -21 -14 -38 -12 -38 2 0 -5 -21 -16 -46 -18 -43 -18 -46 -2 -33
98 76 208 230 318 442 116 225 134 295 130 502 -3 177 -23 261 -105 427 -99
201 -334 489 -510 625 -161 125 -422 282 -645 388 -363 174 -456 220 -593 296
-168 93 -388 234 -507 326 -105 82 -185 145 -205 162 -14 12 -50 43 -80 69
-119 102 -289 264 -377 358 -124 133 -134 145 -212 249 -199 265 -329 557
-396 887 -12 61 -25 105 -28 97 -4 -8 -4 -4 -1 8 11 45 16 79 18 118 2 33 6
41 27 47 339 96 491 178 679 367 90 90 202 244 272 371 58 104 155 257 196
309 131 165 299 282 537 376 59 23 275 82 365 100 14 3 36 7 50 10 20 4 188
34 276 50 12 2 48 6 80 10 33 4 69 8 81 10 38 6 215 19 256 18 20 0 37 3 37 7
0 8 -279 74 -445 105 -166 31 -346 59 -440 70 -27 3 -63 8 -78 11 -32 7 -174
14 -179 9z m-1125 -932 c-62 -134 -171 -253 -315 -340 -81 -50 -229 -123 -248
-123 -13 0 28 96 67 158 61 97 149 167 323 257 59 30 174 82 187 85 2 0 -5
-17 -14 -37z m-53 -370 c0 -27 -133 -217 -185 -266 -74 -68 -224 -161 -322
-198 l-24 -9 3 170 3 170 50 14 c125 35 461 125 468 125 4 1 7 -2 7 -6z"/>
<path d="M6919 6631 c-20 -14 -45 -32 -55 -39 -11 -7 -82 -56 -159 -110 -77
-54 -183 -127 -235 -163 -117 -81 -715 -496 -942 -654 -112 -78 -184 -121
-220 -131 -67 -20 -108 -41 -131 -68 -32 -36 -15 -136 45 -276 57 -131 295
-574 425 -788 24 -40 57 -98 74 -130 17 -31 40 -74 52 -94 l20 -37 -74 -76
c-41 -41 -77 -83 -80 -92 -9 -27 10 -95 34 -122 36 -38 115 -71 175 -71 50 0
56 3 93 43 55 58 99 153 99 211 0 46 -22 97 -98 232 -16 27 -65 113 -109 190
-91 159 -123 217 -219 399 -68 129 -69 130 -69 210 0 74 4 87 42 168 37 76 80
147 119 197 144 181 241 280 615 625 36 33 125 116 197 184 73 68 141 132 152
141 12 10 73 67 137 126 64 60 125 117 136 127 32 28 15 27 -24 -2z"/>
<path d="M4437 6611 c-90 -46 -187 -146 -240 -246 -30 -56 -130 -305 -125
-310 2 -1 35 -5 73 -9 39 -3 79 -8 90 -10 44 -9 124 -44 166 -73 49 -34 13
-32 372 -19 59 2 107 1 107 -1 0 -3 -9 -20 -19 -37 -38 -62 -88 -256 -65 -256
3 0 20 6 37 14 130 59 269 78 463 61 87 -7 93 -6 127 17 46 31 93 89 108 135
14 45 0 215 -21 236 -4 5 -18 -16 -30 -46 -14 -33 -31 -57 -42 -60 -25 -7
-103 15 -165 46 -49 25 -52 29 -63 82 -19 93 -70 142 -186 180 -80 27 -82 27
-316 22 l-235 -5 3 77 c2 42 5 109 7 149 3 39 1 72 -2 72 -4 0 -24 -9 -44 -19z"/>
<path d="M3421 6403 c-16 -113 7 -197 75 -280 33 -40 35 -48 33 -101 -4 -98
-42 -214 -84 -256 -34 -34 -402 0 -435 39 -16 20 -11 25 80 85 44 30 77 57 73
61 -24 20 -277 158 -301 164 -16 3 -42 3 -57 -1 l-27 -7 7 -141 c4 -77 9 -159
10 -181 2 -22 4 -62 6 -88 2 -42 7 -52 38 -76 46 -37 143 -89 178 -96 70 -15
114 -20 186 -20 l77 0 10 -34 c5 -19 15 -59 21 -89 7 -30 18 -56 25 -59 20 -7
93 35 141 83 54 55 95 142 96 207 1 41 -4 52 -33 82 l-34 35 107 0 c59 0 110
1 114 1 7 1 41 -51 59 -87 7 -15 77 0 110 24 114 83 56 351 -118 537 -127 136
-349 259 -357 198z"/>
<path d="M2399 6035 c-3 -130 -7 -326 -10 -510 l-3 -210 30 -2 c16 0 71 -2
122 -2 50 -1 92 -4 92 -9 0 -4 -24 -34 -54 -67 -62 -69 -61 -77 7 -126 55 -40
93 -56 206 -85 52 -13 101 -26 110 -29 9 -3 25 -28 36 -56 11 -28 26 -54 33
-57 37 -14 291 104 333 154 15 18 -4 42 -48 60 -18 8 -52 41 -80 76 -104 137
-234 266 -370 370 -51 38 -116 95 -144 126 -64 70 -194 265 -231 347 l-27 60
-2 -40z"/>
<path d="M4703 5519 c-33 -12 -80 -57 -93 -90 -7 -16 -10 -48 -7 -71 17 -124
162 -179 252 -94 78 74 59 210 -35 248 -33 14 -90 17 -117 7z"/>
<path d="M3715 5385 c-79 -24 -151 -69 -215 -134 -65 -66 -98 -123 -194 -333
-19 -40 -54 -117 -80 -171 -25 -55 -46 -101 -46 -103 0 -2 -11 -27 -24 -56
-87 -193 -173 -426 -240 -648 -36 -123 -114 -447 -140 -585 -3 -18 -12 -79
-21 -140 -16 -115 -16 -121 3 -50 11 39 41 165 67 280 112 498 222 806 403
1126 150 267 436 633 605 776 20 17 37 36 37 41 0 13 -108 12 -155 -3z"/>
<path d="M4339 5345 c0 -5 -2 -18 -4 -27 -2 -9 -6 -61 -10 -114 l-7 -98 -48
-53 c-60 -65 -90 -141 -97 -246 -10 -144 35 -246 174 -388 l95 -97 146 3 c231
5 373 -26 460 -100 39 -32 152 -176 176 -222 34 -67 46 -161 35 -263 -4 -34
-2 -36 53 -63 87 -42 225 -49 274 -13 17 13 15 16 -22 50 -51 48 -129 86 -173
86 -20 0 -51 -9 -68 -20 l-33 -20 -1 28 c-5 183 -20 240 -82 308 -24 27 -36
52 -40 83 -14 111 -131 262 -244 318 -48 23 -60 25 -135 19 -79 -5 -159 -26
-240 -60 l-38 -16 -23 37 c-24 38 -81 154 -111 228 -25 58 -22 120 8 187 50
113 56 245 15 352 -20 53 -58 118 -60 101z"/>
<path d="M2120 4984 c-41 -6 -93 -14 -115 -17 -22 -3 -47 -8 -55 -11 -8 -3
-28 -7 -45 -9 -112 -16 -571 -152 -475 -141 102 11 256 3 369 -20 62 -13 116
-29 120 -35 4 -6 7 -22 6 -34 -2 -26 22 -38 50 -24 45 24 190 5 266 -34 32
-16 37 -23 37 -53 0 -49 28 -101 70 -129 l37 -24 64 52 c68 58 74 59 161 30
62 -21 145 -96 175 -158 9 -20 21 -37 25 -37 15 0 111 135 142 199 17 36 33
87 36 113 5 56 3 57 -116 78 -66 12 -74 16 -94 48 -50 81 -106 115 -197 118
-47 2 -72 9 -100 27 -96 63 -218 84 -361 61z"/>
<path d="M4974 4753 c19 -130 67 -255 141 -367 69 -105 241 -248 402 -336 78
-43 74 -35 -98 200 -155 212 -259 344 -419 533 -24 29 -33 19 -26 -30z"/>
<path d="M3787 4600 c-229 -78 -460 -189 -539 -260 -112 -100 -147 -203 -117
-345 35 -164 65 -222 265 -515 275 -402 440 -582 683 -743 124 -83 141 -92
141 -74 0 8 -25 66 -55 130 -80 169 -83 185 -79 442 4 265 12 517 20 603 l6
63 -53 -32 c-71 -41 -91 -60 -122 -117 -47 -86 -76 -218 -82 -367 -4 -80 0
-114 16 -170 30 -101 117 -278 183 -368 l56 -79 -45 39 c-24 21 -104 99 -178
174 -175 178 -245 282 -301 450 -74 224 -88 419 -42 592 50 188 143 346 289
490 84 83 89 89 71 102 -24 18 -15 19 -117 -15z"/>
<path d="M1961 4311 c-48 -34 -63 -39 -130 -44 -98 -7 -148 -22 -156 -48 -7
-20 -8 -120 -2 -149 2 -8 11 -40 21 -71 l18 -57 53 24 c109 50 267 39 335 -23
21 -18 58 -39 82 -47 40 -12 50 -11 93 6 46 18 52 18 121 3 74 -16 153 -58
226 -119 l42 -34 52 181 c28 100 49 187 45 194 -16 30 -89 98 -136 128 -56 36
-159 75 -198 75 -28 0 -128 -33 -173 -56 -30 -16 -31 -16 -75 15 -54 40 -103
61 -138 60 -14 0 -50 -17 -80 -38z"/>
<path d="M3893 4294 c-44 -22 -63 -46 -84 -106 -23 -69 -19 -202 9 -273 29
-74 44 -105 53 -105 8 0 23 65 38 170 23 159 36 330 25 330 -5 0 -23 -8 -41
-16z"/>
<path d="M707 3972 c-34 -111 -55 -199 -53 -217 2 -16 7 -68 10 -115 7 -87 11
-124 21 -195 4 -22 9 -53 11 -70 3 -16 16 -73 30 -125 95 -362 284 -673 492
-810 89 -59 179 -87 402 -126 87 -16 143 -24 200 -29 36 -3 81 -8 100 -10 40
-5 111 -11 220 -20 41 -3 96 -8 122 -11 25 -2 72 -7 105 -9 57 -5 83 -8 173
-20 124 -17 285 -61 426 -115 41 -15 74 -27 74 -25 0 7 -179 103 -400 214
-455 229 -570 300 -805 495 -231 192 -481 460 -671 721 -121 165 -232 345
-334 540 -29 55 -55 103 -59 107 -4 4 -32 -77 -64 -180z"/>
<path d="M3126 3570 c-42 -193 -13 -381 91 -590 52 -104 68 -125 158 -216 176
-177 312 -269 750 -504 223 -120 403 -283 530 -479 60 -92 152 -278 175 -353
49 -161 59 -227 55 -383 -3 -167 -5 -182 -41 -310 -33 -115 -77 -223 -125
-303 -37 -60 -37 -62 -11 -43 45 32 140 133 200 214 143 191 232 447 234 671
2 280 -98 471 -412 787 -194 196 -458 390 -900 661 -178 110 -381 288 -481
422 -104 140 -182 327 -191 459 -4 62 -14 52 -32 -33z"/>
<path d="M4285 3118 c2 -101 6 -199 9 -218 3 -19 8 -53 11 -75 15 -117 57
-219 121 -296 83 -100 240 -189 359 -203 87 -11 318 -78 385 -111 151 -76 221
-190 314 -518 24 -81 46 -150 51 -155 5 -4 6 -2 3 3 -3 6 -9 34 -12 64 -27
227 -115 435 -259 611 -63 78 -128 119 -452 286 -166 85 -245 164 -332 330
-65 126 -137 298 -168 402 -10 34 -22 62 -26 62 -4 0 -6 -82 -4 -182z"/>
<path d="M966 2193 c266 -257 519 -445 954 -705 411 -247 798 -440 1375 -687
11 -5 36 -16 55 -24 147 -63 163 -68 171 -55 11 18 4 216 -11 308 -47 287
-223 558 -462 714 -101 66 -257 145 -354 179 -100 36 -306 85 -389 93 -38 3
-79 8 -90 10 -27 5 -159 5 -215 -1 -103 -11 -428 -4 -449 10 -3 1 -35 6 -71 9
-222 23 -401 84 -542 188 -47 35 -44 30 28 -39z"/>
<path d="M3390 1818 c0 -4 18 -33 40 -66 59 -90 95 -175 130 -313 28 -108 32
-143 35 -279 4 -164 -7 -256 -45 -389 -11 -40 -19 -74 -18 -75 189 -89 303
-174 442 -332 97 -110 104 -119 161 -202 49 -73 69 -95 61 -70 -3 7 -7 42 -10
78 -15 197 -74 476 -137 657 -85 243 -217 485 -367 671 -91 113 -292 334 -292
320z"/>
</g>
</svg>
